<?xml version="1.0"?>
<svg xmlns="http://www.w3.org/2000/svg" xmlns:xlink="http://www.w3.org/1999/xlink" id="Gradient" viewBox="0 0 512 512" width="512" height="512"><defs><linearGradient id="linear-gradient" x1="252" y1="496" x2="252" y2="112" gradientUnits="userSpaceOnUse"><stop offset="0" stop-color="#12c2e9"/><stop offset="0.5" stop-color="#c471ed"/><stop offset="1" stop-color="#f64f59"/></linearGradient></defs><path d="M400,248a8,8,0,0,1-8,8H376a8,8,0,0,1,0-16h16A8,8,0,0,1,400,248Zm40-8H424a8,8,0,0,0,0,16h16a8,8,0,0,0,0-16ZM16,488V360a8,8,0,0,1,8-8H296a8,8,0,0,1,8,8v56h72V288H352a8,8,0,0,1-7.891-6.685l-16-96A8,8,0,0,1,336,176h11.056l13.789-27.578A8,8,0,0,1,368,144h32V120a8,8,0,0,1,16,0v24h32a8,8,0,0,1,7.155,4.422L468.944,176H480a8,8,0,0,1,7.891,9.315l-16,96A8,8,0,0,1,464,288H440V416h32a8,8,0,0,1,8,8v64a8,8,0,0,1-8,8H24A8,8,0,0,1,16,488ZM364.944,176h86.112l-8-16H372.944ZM348.11,208H467.89l2.666-16H345.444Zm109.113,64,8-48H350.777l8,48ZM392,288V416h32V288ZM304,480H464V432H304ZM32,480H288V368H32Zm312-32H328a8,8,0,0,0,0,16h16a8,8,0,0,0,0-16Zm48,0H376a8,8,0,0,0,0,16h16a8,8,0,0,0,0-16Zm48,0H424a8,8,0,0,0,0,16h16a8,8,0,0,0,0-16ZM72,416H56a8,8,0,0,0,0,16H72a8,8,0,0,0,0-16Zm48,0H104a8,8,0,0,0,0,16h16a8,8,0,0,0,0-16Zm48,0H152a8,8,0,0,0,0,16h16a8,8,0,0,0,0-16Zm48,0H200a8,8,0,0,0,0,16h16a8,8,0,0,0,0-16Zm48,0H248a8,8,0,0,0,0,16h16a8,8,0,0,0,0-16ZM72,384H56a8,8,0,0,0,0,16H72a8,8,0,0,0,0-16Zm48,0H104a8,8,0,0,0,0,16h16a8,8,0,0,0,0-16Zm48,0H152a8,8,0,0,0,0,16h16a8,8,0,0,0,0-16Zm48,0H200a8,8,0,0,0,0,16h16a8,8,0,0,0,0-16Zm48,0H248a8,8,0,0,0,0,16h16a8,8,0,0,0,0-16ZM72,448H56a8,8,0,0,0,0,16H72a8,8,0,0,0,0-16Zm48,0H104a8,8,0,0,0,0,16h16a8,8,0,0,0,0-16Zm48,0H152a8,8,0,0,0,0,16h16a8,8,0,0,0,0-16Zm48,0H200a8,8,0,0,0,0,16h16a8,8,0,0,0,0-16Zm48,0H248a8,8,0,0,0,0,16h16a8,8,0,0,0,0-16ZM16,233.875V184a8,8,0,0,1,8-8H48a8,8,0,0,1,7.761,6.06l5.758,23.03,36.628-2.817L73.854,173.122A8,8,0,0,1,80,160h40a8,8,0,0,1,5.207,1.926l40.966,35.114,65.213-5.017c.205-.015.409-.023.614-.023,20.733,0,35.979,6.086,45.315,18.088C284.505,219.333,288,231.734,288,248a24.028,24.028,0,0,1-24,24H152.293l-35.086,30.074A8,8,0,0,1,112,304H72a8,8,0,0,1-6.146-13.122l22.328-26.793L37.023,257.69A24.038,24.038,0,0,1,16,233.875ZM146.374,256H115.747L89.081,288h19.96ZM117.72,200.767l25.892-1.992L117.041,176H97.081ZM32,207.361l13.337-1.026L41.754,192H32Zm0,26.514a8.014,8.014,0,0,0,7.008,7.939l61.343,7.668,5.5-6.6A8,8,0,0,1,112,240h56a8,8,0,0,1,5.207,14.074L170.96,256H264a8.009,8.009,0,0,0,8-8c0-2.832-.129-5.492-.377-8H256a8,8,0,0,1,0-16h11.26c-5.787-10.964-17.074-15.944-34.959-16L32,223.408Z" style="fill:url(#linear-gradient)"/></svg>
